{"title":"DAMARES - Sabor de Mel (Ao vivo legendado)","uid":6609070,"size":37216568,"categoryP":"video","categoryS":"music_videos","magnet":"?xt=urn:btih:6cbac3296852aee60f987d52150de4a116d616d3&amp;dn=DAMARES+-+Sabor+de+Mel+%28Ao+vivo+legendado%29&amp;tr=udp%3A%2F%2Ftracker.openbittorrent.com%3A80&amp;tr=udp%3A%2F%2Fopen.demonii.com%3A1337&amp;tr=udp%3A%2F%2Ftracker.coppersurfer.tk%3A6969&amp;tr=udp%3A%2F%2Fexodus.desync.com%3A6969","seeders":4,"leechers":0,"uploader":"teckweb","files":1,"time":1313518086,"description":"  Video #0\n    ID : 0\n    Format : MPEG-4 Visual\n    Format profile : Advanced Simple@L5\n    Format settings, BVOP : 2\n    Format settings, QPel : No\n    Format settings, GMC : No warppoints\n    Format settings, Matrix : Default (H.263)\n    Muxing mode : Packed bitstream\n    Codec ID : XVID\n    Codec ID/Hint : XviD\n    Duration : 5mn 18s\n    Bit rate : 733 Kbps\n    Width : 624 pixels\n    Height : 336 pixels\n    Display aspect ratio : 1.857\n    Frame rate : 23.976 fps\n    Color space : YUV\n    Chroma subsampling : 4:2:0\n    Bit depth : 8 bits\n    Scan type : Progressive\n    Compression mode : Lossy\n    Bits/(Pixel*Frame) : 0.146\n    Stream size : 27.8 MiB (78%)\n    Writing library : XviD 1.3.0.dev55\n\n  Audio #1\n    ID : 1\n    Format : MPEG Audio\n    Format version : Version 1\n    Format profile : Layer 3\n    Mode : Joint stereo\n    Mode extension : MS Stereo\n    Codec ID : 55\n    Codec ID/Hint : MP3\n    Duration : 5mn 18s\n    Bit rate mode : Constant\n    Bit rate : 192 Kbps\n    Channel(s) : 2 channels\n    Sampling rate : 48.0 KHz\n    Compression mode : Lossy\n    Stream size : 7.29 MiB (21%)\n    Alignment : Aligned on interleaves\n    Interleave, duration : 42 ms (1.00 video frame)\n    Interleave, preload duration : 504 ms\n","torrent":{"xt":"urn:btih:6cbac3296852aee60f987d52150de4a116d616d3","amp;dn":"DAMARES+-+Sabor+de+Mel+%28Ao+vivo+legendado%29","amp;tr":["udp%3A%2F%2Ftracker.openbittorrent.com%3A80","udp%3A%2F%2Fopen.demonii.com%3A1337","udp%3A%2F%2Ftracker.coppersurfer.tk%3A6969","udp%3A%2F%2Fexodus.desync.com%3A6969"],"infoHash":"6cbac3296852aee60f987d52150de4a116d616d3","infoHashBuffer":{"type":"Buffer","data":[108,186,195,41,104,82,174,230,15,152,125,82,21,13,228,161,22,214,22,211]},"announce":[],"urlList":[]}}